<?xml version="1.0" ?><svg enable-background="new 0 0 512 512" id="Layer_1" version="1.1" viewBox="0 0 512 512" xml:space="preserve" xmlns="http://www.w3.org/2000/svg" xmlns:xlink="http://www.w3.org/1999/xlink"><g><g><linearGradient gradientUnits="userSpaceOnUse" id="SVGID_1_" x1="0.0000083" x2="512" y1="256" y2="256"><stop offset="0" style="stop-color:#F35CB5"/><stop offset="1" style="stop-color:#EC008C"/></linearGradient><circle cx="256" cy="256" fill="url(#SVGID_1_)" r="256"/><linearGradient gradientUnits="userSpaceOnUse" id="SVGID_2_" x1="42.6666756" x2="469.333313" y1="256.0005188" y2="256.0005188"><stop offset="0" style="stop-color:#EC008C"/><stop offset="1" style="stop-color:#F35CB5"/></linearGradient><path d="M256,469.3338623c-117.6309204,0-213.3333282-95.7023926-213.3333282-213.3333435    c0-117.6314545,95.7024078-213.333313,213.3333282-213.333313c117.636261,0,213.333313,95.7018661,213.333313,213.333313    C469.333313,373.6314697,373.636261,469.3338623,256,469.3338623z" fill="url(#SVGID_2_)"/></g><path d="M384,199.3445282v-53.9247894h-53.9242859v20.5413208H197.9242706v-20.5413208h-53.9242554v53.9247894   h21.9626617v129.3109283h-21.9626617v53.9242859h53.9242554v-20.5445557h132.1514435v20.5445557H384v-53.9242859h-21.9631958   V199.3445282H384z M352.0368042,328.6554565h-21.9610901v23.3797302H197.9242706v-23.3797302h-21.9616089V199.3445282h21.9616089   v-23.3834686h132.1514435v23.3834686h21.9610901V328.6554565z" opacity="0.3"/><path d="M376,191.3445282v-53.9247894h-53.9242859v20.5413208H189.9242706v-20.5413208h-53.9242554v53.9247894   h21.9626617v129.3109283h-21.9626617v53.9242859h53.9242554v-20.5445557h132.1514435v20.5445557H376v-53.9242859h-21.9631958   V191.3445282H376z M344.0368042,320.6554565h-21.9610901v23.3797302H189.9242706v-23.3797302H167.962677V191.3445282h21.9615936   v-23.3834686h132.1514435v23.3834686h21.9610901V320.6554565z" fill="#FFFFFF"/></g></svg>