<?xml version="1.0" encoding="UTF-8" standalone="no"?>
<!-- Generator: Thurly Designer -->
<svg xmlns="http://www.w3.org/2000/svg" xmlns:xlink="http://www.w3.org/1999/xlink" style="isolation:isolate" viewBox="0 0 215 60" width="215" height="60"><g id="null"><g id="null"><path d=" M 92.941 39.294 C 92.941 40.591 92.725 41.78 92.293 42.865 C 91.86 43.949 91.253 44.883 90.47 45.665 C 89.687 46.448 88.745 47.055 87.644 47.487 C 86.543 47.919 85.324 48.135 83.987 48.135 L 77.234 48.135 L 77.234 30.453 L 83.987 30.453 C 85.324 30.453 86.543 30.671 87.644 31.107 C 88.745 31.543 89.687 32.15 90.47 32.929 C 91.253 33.708 91.86 34.64 92.293 35.723 C 92.725 36.807 92.941 37.998 92.941 39.294 Z  M 89.577 39.294 C 89.577 38.324 89.447 37.453 89.185 36.684 C 88.924 35.913 88.553 35.261 88.072 34.727 C 87.591 34.193 87.006 33.783 86.317 33.498 C 85.628 33.213 84.851 33.07 83.987 33.07 L 80.549 33.07 L 80.549 45.518 L 83.987 45.518 C 84.851 45.518 85.628 45.376 86.317 45.09 C 87.006 44.805 87.591 44.395 88.072 43.861 C 88.553 43.327 88.924 42.675 89.185 41.905 C 89.447 41.134 89.577 40.264 89.577 39.294 Z " fill="rgb(255,255,255)"/></g><g id="null"><path d=" M 109.614 30.453 L 109.614 33.07 L 101.773 33.07 L 101.773 37.973 L 107.951 37.973 L 107.951 40.505 L 101.773 40.505 L 101.773 45.506 L 109.614 45.506 L 109.614 48.135 L 98.458 48.135 L 98.458 30.453 L 109.614 30.453 Z " fill="rgb(255,255,255)"/></g><g id="null"><path d=" M 124.881 33.669 C 124.791 33.848 124.687 33.975 124.569 34.048 C 124.451 34.122 124.31 34.158 124.147 34.158 C 123.984 34.158 123.801 34.095 123.597 33.968 C 123.393 33.842 123.152 33.701 122.875 33.547 C 122.597 33.392 122.273 33.251 121.902 33.125 C 121.531 32.998 121.093 32.935 120.587 32.935 C 120.13 32.935 119.733 32.99 119.394 33.101 C 119.056 33.21 118.77 33.363 118.538 33.559 C 118.306 33.755 118.132 33.989 118.018 34.262 C 117.904 34.535 117.847 34.835 117.847 35.161 C 117.847 35.577 117.963 35.923 118.196 36.2 C 118.428 36.477 118.736 36.714 119.119 36.91 C 119.503 37.106 119.939 37.281 120.428 37.436 C 120.917 37.591 121.417 37.755 121.926 37.93 C 122.436 38.106 122.936 38.31 123.425 38.542 C 123.915 38.774 124.351 39.068 124.734 39.422 C 125.118 39.777 125.425 40.211 125.658 40.725 C 125.89 41.238 126.006 41.862 126.006 42.595 C 126.006 43.395 125.87 44.142 125.597 44.84 C 125.323 45.537 124.924 46.144 124.398 46.662 C 123.872 47.18 123.229 47.587 122.471 47.884 C 121.713 48.182 120.844 48.331 119.865 48.331 C 119.303 48.331 118.748 48.276 118.202 48.166 C 117.655 48.055 117.131 47.899 116.63 47.695 C 116.128 47.491 115.659 47.246 115.223 46.961 C 114.787 46.676 114.397 46.358 114.054 46.008 L 115.009 44.43 C 115.098 44.316 115.207 44.22 115.333 44.142 C 115.46 44.065 115.6 44.027 115.755 44.027 C 115.959 44.027 116.179 44.11 116.416 44.277 C 116.652 44.444 116.932 44.63 117.254 44.834 C 117.576 45.038 117.955 45.223 118.391 45.39 C 118.827 45.557 119.352 45.641 119.963 45.641 C 120.901 45.641 121.627 45.418 122.141 44.974 C 122.654 44.53 122.912 43.892 122.912 43.06 C 122.912 42.595 122.795 42.216 122.563 41.923 C 122.33 41.63 122.022 41.383 121.639 41.183 C 121.256 40.984 120.819 40.815 120.331 40.676 C 119.841 40.537 119.344 40.387 118.838 40.223 C 118.333 40.06 117.835 39.865 117.346 39.636 C 116.856 39.408 116.42 39.111 116.036 38.744 C 115.653 38.377 115.345 37.918 115.113 37.368 C 114.88 36.818 114.765 36.139 114.765 35.332 C 114.765 34.688 114.893 34.06 115.15 33.449 C 115.406 32.837 115.782 32.295 116.275 31.823 C 116.768 31.35 117.374 30.971 118.091 30.686 C 118.81 30.4 119.629 30.257 120.55 30.257 C 121.594 30.257 122.556 30.42 123.437 30.747 C 124.318 31.073 125.069 31.529 125.688 32.116 L 124.881 33.669 Z " fill="rgb(255,255,255)"/></g><g id="null"><rect x="131.866" y="30.453" width="3.303" height="17.682" transform="matrix(1,0,0,1,0,0)" fill="rgb(255,255,255)"/></g><g id="null"><path d=" M 150.203 45.714 C 150.945 45.714 151.591 45.647 152.142 45.512 C 152.693 45.377 153.216 45.192 153.713 44.956 L 153.713 41.739 L 151.499 41.739 C 151.287 41.739 151.12 41.681 150.998 41.562 C 150.876 41.444 150.815 41.3 150.815 41.128 L 150.815 39.27 L 156.698 39.27 L 156.698 46.423 C 156.25 46.749 155.783 47.033 155.297 47.273 C 154.812 47.513 154.294 47.711 153.745 47.866 C 153.194 48.021 152.604 48.137 151.977 48.215 C 151.349 48.292 150.671 48.331 149.946 48.331 C 148.657 48.331 147.471 48.107 146.386 47.658 C 145.301 47.21 144.364 46.586 143.573 45.787 C 142.782 44.989 142.164 44.035 141.719 42.926 C 141.275 41.817 141.053 40.606 141.053 39.294 C 141.053 37.965 141.269 36.747 141.701 35.638 C 142.133 34.529 142.747 33.575 143.542 32.776 C 144.338 31.978 145.301 31.358 146.435 30.918 C 147.569 30.477 148.841 30.257 150.252 30.257 C 151.695 30.257 152.945 30.471 154.001 30.899 C 155.057 31.327 155.953 31.884 156.686 32.569 L 155.732 34.06 C 155.545 34.362 155.296 34.513 154.986 34.513 C 154.79 34.513 154.59 34.447 154.386 34.317 C 154.125 34.163 153.858 34.008 153.585 33.853 C 153.312 33.698 153.01 33.563 152.68 33.449 C 152.35 33.335 151.979 33.241 151.567 33.168 C 151.155 33.095 150.68 33.058 150.142 33.058 C 149.269 33.058 148.48 33.204 147.775 33.498 C 147.069 33.791 146.468 34.211 145.971 34.757 C 145.473 35.303 145.09 35.96 144.821 36.726 C 144.551 37.493 144.417 38.349 144.417 39.294 C 144.417 40.313 144.559 41.22 144.845 42.015 C 145.131 42.81 145.53 43.48 146.044 44.027 C 146.557 44.573 147.169 44.99 147.879 45.28 C 148.588 45.569 149.363 45.714 150.203 45.714 Z " fill="rgb(255,255,255)"/></g><g id="null"><path d=" M 164.429 30.453 C 164.576 30.453 164.699 30.46 164.797 30.471 C 164.894 30.484 164.982 30.508 165.06 30.545 C 165.137 30.581 165.213 30.635 165.286 30.704 C 165.36 30.773 165.441 30.864 165.53 30.979 L 174.815 42.804 C 174.783 42.518 174.76 42.239 174.748 41.966 C 174.736 41.693 174.73 41.438 174.73 41.202 L 174.73 30.453 L 177.629 30.453 L 177.629 48.135 L 175.929 48.135 C 175.667 48.135 175.452 48.094 175.28 48.012 C 175.109 47.932 174.942 47.785 174.779 47.573 L 165.53 35.797 C 165.555 36.058 165.573 36.316 165.586 36.573 C 165.598 36.83 165.604 37.065 165.604 37.276 L 165.604 48.135 L 162.705 48.135 L 162.705 30.453 L 164.429 30.453 Z " fill="rgb(255,255,255)"/></g><g id="null"><path d=" M 195.293 30.453 L 195.293 33.07 L 187.452 33.07 L 187.452 37.973 L 193.629 37.973 L 193.629 40.505 L 187.452 40.505 L 187.452 45.506 L 195.293 45.506 L 195.293 48.135 L 184.137 48.135 L 184.137 30.453 L 195.293 30.453 Z " fill="rgb(255,255,255)"/></g><g id="null"><path d=" M 204.48 41.226 L 204.48 48.135 L 201.19 48.135 L 201.19 30.453 L 206.584 30.453 C 207.791 30.453 208.825 30.577 209.685 30.826 C 210.545 31.074 211.251 31.423 211.801 31.872 C 212.352 32.32 212.756 32.856 213.012 33.48 C 213.269 34.103 213.397 34.79 213.397 35.54 C 213.397 36.135 213.31 36.698 213.135 37.227 C 212.96 37.757 212.707 38.238 212.376 38.67 C 212.046 39.103 211.638 39.482 211.153 39.807 C 210.668 40.134 210.115 40.395 209.496 40.591 C 209.911 40.826 210.27 41.165 210.572 41.605 L 215 48.135 L 212.04 48.135 C 211.755 48.135 211.512 48.078 211.312 47.964 C 211.112 47.85 210.943 47.687 210.804 47.475 L 207.086 41.813 C 206.947 41.601 206.794 41.45 206.627 41.36 C 206.46 41.271 206.213 41.226 205.887 41.226 L 204.48 41.226 Z  M 204.48 38.866 L 206.535 38.866 C 207.155 38.866 207.695 38.788 208.156 38.633 C 208.616 38.479 208.996 38.265 209.294 37.992 C 209.591 37.719 209.814 37.395 209.96 37.02 C 210.107 36.645 210.18 36.233 210.18 35.785 C 210.18 34.888 209.885 34.199 209.294 33.718 C 208.702 33.237 207.799 32.997 206.584 32.997 L 204.48 32.997 L 204.48 38.866 Z " fill="rgb(255,255,255)"/></g></g><g id="logo"><g id="null"><linearGradient id="_lgradient_0" x1="0.00000162109375%" y1="50%" x2="100%" y2="50%"><stop offset="0%" stop-opacity="1" style="stop-color:rgb(243,92,181)"/><stop offset="100%" stop-opacity="1" style="stop-color:rgb(236,0,140)"/></linearGradient><path d=" M 5 30.257 C 5 14.803 17.546 2.257 33 2.257 C 48.454 2.257 61 14.803 61 30.257 C 61 45.711 48.454 58.257 33 58.257 C 17.546 58.257 5 45.711 5 30.257 Z " fill="url(#_lgradient_0)"/><linearGradient id="_lgradient_1" x1="8.906250556495188e-7%" y1="49.999996425781156%" x2="100%" y2="49.999996425781156%"><stop offset="0%" stop-opacity="1" style="stop-color:rgb(236,0,140)"/><stop offset="100%" stop-opacity="1" style="stop-color:rgb(243,92,181)"/></linearGradient><path d=" M 33 53.59 C 20.134 53.59 9.667 43.123 9.667 30.257 C 9.667 17.391 20.134 6.924 33 6.924 C 45.866 6.924 56.333 17.391 56.333 30.257 C 56.333 43.123 45.866 53.59 33 53.59 Z " fill="url(#_lgradient_1)"/></g><g opacity="0.3"><path d=" M 46 24.06 L 46 18.162 L 40.102 18.162 L 40.102 20.409 L 25.648 20.409 L 25.648 18.162 L 19.75 18.162 L 19.75 24.06 L 22.152 24.06 L 22.152 38.204 L 19.75 38.204 L 19.75 44.102 L 25.648 44.102 L 25.648 41.855 L 40.102 41.855 L 40.102 44.102 L 46 44.102 L 46 38.204 L 43.598 38.204 L 43.598 24.06 L 46 24.06 Z  M 42.504 38.204 L 40.102 38.204 L 40.102 40.761 L 25.648 40.761 L 25.648 38.204 L 23.246 38.204 L 23.246 24.06 L 25.648 24.06 L 25.648 21.503 L 40.102 21.503 L 40.102 24.06 L 42.504 24.06 L 42.504 38.204 Z " fill="rgb(0,0,0)"/></g><path d=" M 45.125 23.185 L 45.125 17.287 L 39.227 17.287 L 39.227 19.534 L 24.773 19.534 L 24.773 17.287 L 18.875 17.287 L 18.875 23.185 L 21.277 23.185 L 21.277 37.329 L 18.875 37.329 L 18.875 43.227 L 24.773 43.227 L 24.773 40.98 L 39.227 40.98 L 39.227 43.227 L 45.125 43.227 L 45.125 37.329 L 42.723 37.329 L 42.723 23.185 L 45.125 23.185 Z  M 41.629 37.329 L 39.227 37.329 L 39.227 39.886 L 24.773 39.886 L 24.773 37.329 L 22.371 37.329 L 22.371 23.185 L 24.773 23.185 L 24.773 20.628 L 39.227 20.628 L 39.227 23.185 L 41.629 23.185 L 41.629 37.329 Z " fill="rgb(255,255,255)"/></g><path d=" M 88.342 7.419 L 83.667 7.419 L 83.667 25.342 L 81.903 25.342 L 81.903 7.419 L 77.227 7.419 L 77.227 5.737 L 88.342 5.737 L 88.342 7.419 Z  M 102.178 25.342 L 100.415 25.342 L 100.415 16.387 L 92.909 16.387 L 92.909 25.342 L 91.145 25.342 L 91.145 5.737 L 92.909 5.737 L 92.909 14.706 L 100.415 14.706 L 100.415 5.737 L 102.178 5.737 L 102.178 25.342 Z  M 117.409 20.803 L 117.409 20.803 L 117.409 20.803 Q 117.409 21.801 117.033 22.676 L 117.033 22.676 L 117.033 22.676 Q 116.657 23.551 116.001 24.208 L 116.001 24.208 L 116.001 24.208 Q 115.344 24.864 114.469 25.24 L 114.469 25.24 L 114.469 25.24 Q 113.594 25.616 112.596 25.616 L 112.596 25.616 L 111.202 25.616 L 111.202 25.616 Q 110.204 25.616 109.322 25.24 L 109.322 25.24 L 109.322 25.24 Q 108.44 24.864 107.784 24.208 L 107.784 24.208 L 107.784 24.208 Q 107.128 23.551 106.752 22.676 L 106.752 22.676 L 106.752 22.676 Q 106.376 21.801 106.376 20.803 L 106.376 20.803 L 106.376 5.737 L 108.139 5.737 L 108.139 20.803 L 108.139 20.803 Q 108.139 21.46 108.385 22.027 L 108.385 22.027 L 108.385 22.027 Q 108.632 22.594 109.062 23.025 L 109.062 23.025 L 109.062 23.025 Q 109.493 23.456 110.06 23.702 L 110.06 23.702 L 110.06 23.702 Q 110.628 23.948 111.284 23.948 L 111.284 23.948 L 112.514 23.948 L 112.514 23.948 Q 113.171 23.948 113.738 23.702 L 113.738 23.702 L 113.738 23.702 Q 114.305 23.456 114.729 23.025 L 114.729 23.025 L 114.729 23.025 Q 115.153 22.594 115.399 22.027 L 115.399 22.027 L 115.399 22.027 Q 115.645 21.46 115.645 20.803 L 115.645 20.803 L 115.645 5.737 L 117.409 5.737 L 117.409 20.803 Z  M 132.872 25.342 L 130.835 25.342 L 125.516 16.975 L 123.096 16.975 L 123.096 25.342 L 121.333 25.342 L 121.333 5.737 L 127.553 5.737 L 127.553 5.737 Q 128.551 5.737 129.426 6.113 L 129.426 6.113 L 129.426 6.113 Q 130.301 6.489 130.958 7.145 L 130.958 7.145 L 130.958 7.145 Q 131.614 7.801 131.99 8.683 L 131.99 8.683 L 131.99 8.683 Q 132.366 9.565 132.366 10.563 L 132.366 10.563 L 132.366 12.149 L 132.366 12.149 Q 132.366 13.147 131.99 14.029 L 131.99 14.029 L 131.99 14.029 Q 131.614 14.911 130.958 15.567 L 130.958 15.567 L 130.958 15.567 Q 130.301 16.223 129.426 16.599 L 129.426 16.599 L 129.426 16.599 Q 128.551 16.975 127.553 16.975 L 127.553 16.975 L 132.872 25.342 Z  M 130.602 12.149 L 130.602 10.563 L 130.602 10.563 Q 130.602 9.907 130.356 9.34 L 130.356 9.34 L 130.356 9.34 Q 130.11 8.772 129.686 8.341 L 129.686 8.341 L 129.686 8.341 Q 129.262 7.911 128.695 7.665 L 128.695 7.665 L 128.695 7.665 Q 128.128 7.419 127.471 7.419 L 127.471 7.419 L 123.096 7.419 L 123.096 15.294 L 127.471 15.294 L 127.471 15.294 Q 128.128 15.294 128.695 15.048 L 128.695 15.048 L 128.695 15.048 Q 129.262 14.801 129.686 14.371 L 129.686 14.371 L 129.686 14.371 Q 130.11 13.94 130.356 13.373 L 130.356 13.373 L 130.356 13.373 Q 130.602 12.805 130.602 12.149 L 130.602 12.149 Z  M 145.217 25.342 L 135.948 25.342 L 135.948 5.737 L 137.712 5.737 L 137.712 23.661 L 145.217 23.661 L 145.217 25.342 Z  M 158.206 5.737 L 153.174 15.964 L 153.174 25.342 L 151.411 25.342 L 151.411 15.991 L 146.339 5.737 L 148.239 5.737 L 152.272 13.885 L 156.305 5.737 L 158.206 5.737 Z " fill-rule="evenodd" fill="rgb(255,255,255)"/></svg>