<?xml version="1.0" standalone="no"?><!-- Generator: Gravit.io --><svg id="svg-cloud-icon" xmlns="http://www.w3.org/2000/svg" xmlns:xlink="http://www.w3.org/1999/xlink" style="isolation:isolate;fill:white" viewBox="1331.8037059207963 41.00430660423931 93.08114098869487 28.670992942936657" width="93.08114098869487" height="28.670992942936657"><path d=" M 1377.4414077972365 48.2502964711295 Q 1377.677286832884 48.2502964711295 1377.831515433115 48.40452507136057 Q 1377.9857440333462 48.558753671591624 1377.9857440333462 48.812777248442785 L 1377.9857440333462 56.66936358962503 Q 1377.9857440333462 58.084637803510056 1377.3960464442275 59.09165984031286 Q 1376.8063488551086 60.098681877115666 1375.7811822771023 60.62487357202164 Q 1374.7560156990958 61.1510652669276 1373.431464191229 61.1510652669276 Q 1372.796405249101 61.1510652669276 1372.0978404127604 60.98776439609472 Q 1371.3992755764198 60.824463525261834 1370.9003006933192 60.57043994841067 Q 1370.4013258102189 60.31641637155951 1370.328747645404 60.044248253504705 Q 1370.2017358569785 59.91723646507913 1370.2017358569785 59.75393559424624 Q 1370.2017358569785 59.57249018220969 1370.3650367278115 59.46362293498777 Q 1370.437614892626 59.40918931137681 1370.546482139848 59.40918931137681 Q 1370.65534938707 59.40918931137681 1370.963806587532 59.53620109980238 L 1371.3448419528088 59.69950197063527 Q 1372.4698035074352 60.134970959522974 1373.4496087324326 60.134970959522974 Q 1375.0644728995578 60.134970959522974 1375.9807722303424 59.218671628738434 Q 1376.897071561127 58.3023722979539 1376.897071561127 56.74194175443965 L 1376.897071561127 55.616980199813085 Q 1376.4434580310356 56.59678542481041 1375.4636528060382 57.15019393152187 Q 1374.483847581041 57.70360243823332 1373.4133196500254 57.70360243823332 Q 1372.1613463069732 57.70360243823332 1371.1543242701705 57.077615766707254 Q 1370.1473022333676 56.451629095181175 1369.5666769148506 55.34481208175828 Q 1368.9860515963337 54.23799506833537 1368.9860515963337 52.85900993685766 Q 1368.9860515963337 51.498169346583595 1369.5666769148506 50.3913523331607 Q 1370.1473022333676 49.28453531973779 1371.1543242701705 48.65854864821172 Q 1372.1613463069732 48.032561976685656 1373.3951751088216 48.032561976685656 Q 1374.5382812046519 48.032561976685656 1375.4908696178438 48.60411502460076 Q 1376.4434580310356 49.17566807251586 1376.897071561127 49.974027885476644 L 1376.897071561127 48.812777248442785 Q 1376.897071561127 48.57689821279528 1377.051300161358 48.41359734196239 Q 1377.205528761589 48.2502964711295 1377.4414077972365 48.2502964711295 Z  M 1373.5040423560436 56.68750813082868 Q 1374.5019921222447 56.68750813082868 1375.2912796646035 56.20667778893185 Q 1376.0805672069625 55.725847447035015 1376.5251084664521 54.84583719865779 Q 1376.9696497259415 53.96582695028056 1376.9696497259415 52.85900993685766 Q 1376.9696497259415 51.752192923434755 1376.5251084664521 50.88125494565936 Q 1376.0805672069625 50.01031696788396 1375.2912796646035 49.52948662598712 Q 1374.5019921222447 49.048656284090285 1373.5040423560436 49.048656284090285 Q 1372.5242371310462 49.048656284090285 1371.7349495886874 49.54763116719077 Q 1370.9456620463284 50.04660605029126 1370.5011207868388 50.917544028066665 Q 1370.0565795273494 51.78848200584206 1370.0565795273494 52.85900993685766 Q 1370.0565795273494 53.947682409076904 1370.5011207868388 54.8186203868523 Q 1370.9456620463284 55.68955836462771 1371.7349495886874 56.188533247728195 Q 1372.5242371310462 56.68750813082868 1373.5040423560436 56.68750813082868 Z  M 1386.8901776290395 48.032561976685656 Q 1387.2530684531125 48.032561976685656 1387.543381112371 48.17771830631489 Q 1387.8336937716294 48.32287463594412 1387.8336937716294 48.613187295202586 Q 1387.8336937716294 48.86721087205375 1387.6885374420003 49.021439472284804 Q 1387.543381112371 49.17566807251586 1387.343791159131 49.17566807251586 Q 1387.2530684531125 49.17566807251586 1386.9899726056597 49.08494536649759 Q 1386.7268767582066 48.99422266047932 1386.490997722559 48.99422266047932 Q 1385.8196496980238 48.99422266047932 1385.1573739440905 49.511342084783465 Q 1384.495098190157 50.02846150908761 1384.0687014718712 50.84496586325205 Q 1383.6423047535854 51.66147021741648 1383.6423047535854 52.49611911278458 L 1383.6423047535854 56.97782079008715 Q 1383.6423047535854 57.21369982573465 1383.4880761533543 57.367928425965715 Q 1383.3338475531232 57.52215702619678 1383.0979685174757 57.52215702619678 Q 1382.8620894818282 57.52215702619678 1382.7078608815973 57.367928425965715 Q 1382.5536322813662 57.21369982573465 1382.5536322813662 56.97782079008715 L 1382.5536322813662 48.84906633085009 Q 1382.5536322813662 48.613187295202586 1382.7078608815973 48.45895869497153 Q 1382.8620894818282 48.304730094740464 1383.0979685174757 48.304730094740464 Q 1383.3338475531232 48.304730094740464 1383.4880761533543 48.45895869497153 Q 1383.6423047535854 48.613187295202586 1383.6423047535854 48.84906633085009 L 1383.6423047535854 50.44578595677166 Q 1384.0596292012694 49.41154710816337 1384.9033503672392 48.731126813026336 Q 1385.7470715332092 48.05070651788931 1386.8901776290395 48.032561976685656 Z  M 1398.770315982132 48.2502964711295 Q 1399.0061950177794 48.2502964711295 1399.1604236180106 48.41359734196239 Q 1399.3146522182417 48.57689821279528 1399.3146522182417 48.812777248442785 L 1399.3146522182417 56.97782079008715 Q 1399.3146522182417 57.21369982573465 1399.1604236180106 57.367928425965715 Q 1399.0061950177794 57.52215702619678 1398.770315982132 57.52215702619678 Q 1398.5344369464844 57.52215702619678 1398.3802083462535 57.367928425965715 Q 1398.2259797460224 57.21369982573465 1398.2259797460224 56.97782079008715 L 1398.2259797460224 55.76213652944232 Q 1397.772366215931 56.57864088360676 1396.8651391557482 57.141121660920035 Q 1395.9579120955657 57.70360243823332 1394.88738416455 57.70360243823332 Q 1393.6716999039052 57.70360243823332 1392.7009669495096 57.06854349610542 Q 1391.7302339951143 56.43348455397752 1391.1768254884028 55.326667540554624 Q 1390.6234169816912 54.21985052713172 1390.6234169816912 52.840865395654006 Q 1390.6234169816912 51.46188026417629 1391.1858977590045 50.36413552135521 Q 1391.748378536318 49.26639077853414 1392.7191114907134 48.64947637760989 Q 1393.689844445109 48.032561976685656 1394.8692396233464 48.032561976685656 Q 1395.9579120955657 48.032561976685656 1396.8651391557482 48.558753671591624 Q 1397.772366215931 49.08494536649759 1398.2259797460224 49.93773880306934 L 1398.2259797460224 48.812777248442785 Q 1398.2259797460224 48.57689821279528 1398.3802083462535 48.41359734196239 Q 1398.5344369464844 48.2502964711295 1398.770315982132 48.2502964711295 Z  M 1394.996251411772 56.68750813082868 Q 1395.9397675543619 56.68750813082868 1396.6927660143135 56.188533247728195 Q 1397.4457644742652 55.68955836462771 1397.8721611925512 54.809548116250475 Q 1398.298557910837 53.92953786787325 1398.298557910837 52.840865395654006 Q 1398.298557910837 51.78848200584206 1397.8721611925512 50.917544028066665 Q 1397.4457644742652 50.04660605029126 1396.6927660143135 49.54763116719077 Q 1395.9397675543619 49.048656284090285 1394.996251411772 49.048656284090285 Q 1394.052735269182 49.048656284090285 1393.2997368092304 49.538558896588945 Q 1392.5467383492787 50.02846150908761 1392.1203416309927 50.890327216261184 Q 1391.693944912707 51.752192923434755 1391.693944912707 52.840865395654006 Q 1391.693944912707 53.92953786787325 1392.111269360391 54.809548116250475 Q 1392.528593808075 55.68955836462771 1393.2815922680265 56.188533247728195 Q 1394.0345907279782 56.68750813082868 1394.996251411772 56.68750813082868 Z  M 1410.8681888296685 48.068851059092964 Q 1411.049634241705 48.068851059092964 1411.212935112538 48.19586284751854 Q 1411.3762359833706 48.32287463594412 1411.3762359833706 48.52246458918432 Q 1411.3762359833706 48.6857654600172 1411.303657818556 48.83092178964644 L 1407.74732774264 57.17741074332734 Q 1407.6747495778252 57.32256707295658 1407.5386655187979 57.42236204957668 Q 1407.4025814597705 57.52215702619678 1407.2574251301412 57.52215702619678 Q 1407.0759797181047 57.540301567400434 1406.9308233884756 57.449578861382165 Q 1406.7856670588462 57.35885615536389 1406.7130888940317 57.17741074332734 L 1403.1386142769118 48.83092178964644 Q 1403.1386142769118 48.79463270723913 1403.1113974651062 48.72205454242451 Q 1403.0841806533008 48.64947637760989 1403.0841806533008 48.57689821279528 Q 1403.0841806533008 48.359163718351425 1403.2293369829301 48.20493511812037 Q 1403.3744933125593 48.05070651788931 1403.6466614306141 48.05070651788931 Q 1403.809962301447 48.05070651788931 1403.9460463604744 48.150501494509406 Q 1404.0821304195017 48.2502964711295 1404.1547085843165 48.41359734196239 L 1407.2392805889376 55.76213652944232 L 1410.3419971347626 48.41359734196239 Q 1410.414575299577 48.2502964711295 1410.5506593586044 48.150501494509406 Q 1410.686743417632 48.05070651788931 1410.8681888296685 48.068851059092964 Z  M 1416.2162923494454 56.97782079008715 Q 1416.2162923494454 57.21369982573465 1416.0620637492145 57.367928425965715 Q 1415.9078351489834 57.52215702619678 1415.671956113336 57.52215702619678 Q 1415.4360770776884 57.52215702619678 1415.2818484774573 57.367928425965715 Q 1415.1276198772262 57.21369982573465 1415.1276198772262 56.97782079008715 L 1415.1276198772262 48.63133183640624 Q 1415.1276198772262 48.39545280075873 1415.2818484774573 48.241224200527675 Q 1415.4360770776884 48.08699560029662 1415.671956113336 48.08699560029662 Q 1415.9078351489834 48.08699560029662 1416.0620637492145 48.241224200527675 Q 1416.2162923494454 48.39545280075873 1416.2162923494454 48.63133183640624 L 1416.2162923494454 56.97782079008715 Z  M 1415.671956113336 46.87131133965179 Q 1415.309065289263 46.87131133965179 1415.1094753360226 46.69893819821707 Q 1414.9098853827825 46.52656505678236 1414.9098853827825 46.199963315116584 L 1414.9098853827825 46.018517903080046 Q 1414.9098853827825 45.69191616141427 1415.1185476066244 45.51954301997955 Q 1415.3272098304665 45.34716987854484 1415.6901006545395 45.34716987854484 Q 1416.4158823026858 45.34716987854484 1416.4158823026858 46.018517903080046 L 1416.4158823026858 46.199963315116584 Q 1416.4158823026858 46.52656505678236 1416.2253646200472 46.69893819821707 Q 1416.034846937409 46.87131133965179 1415.671956113336 46.87131133965179 Z  M 1422.5623456354235 49.302679860941446 L 1422.5623456354235 55.381101164165585 Q 1422.5623456354235 56.070593729904445 1422.8163692122746 56.31554503615378 Q 1423.070392789126 56.560496342403106 1423.4877172368099 56.560496342403106 Q 1423.5965844840318 56.560496342403106 1423.7598853548648 56.51513498939397 Q 1423.9231862256977 56.46977363638483 1424.0139089317158 56.46977363638483 Q 1424.1772098025488 56.46977363638483 1424.2951493203725 56.60585769541224 Q 1424.4130888381962 56.74194175443965 1424.4130888381962 56.92338716647619 Q 1424.4130888381962 57.17741074332734 1424.1227761789378 57.34978388476206 Q 1423.8324635196793 57.52215702619678 1423.433283613199 57.52215702619678 Q 1422.9433810007004 57.52215702619678 1422.5623456354235 57.431434320178504 Q 1422.1813102701467 57.340711614160234 1421.8274917166755 56.88709808406888 Q 1421.4736731632042 56.43348455397752 1421.4736731632042 55.43553478777655 L 1421.4736731632042 49.302679860941446 L 1420.1491216553375 49.302679860941446 Q 1419.9313871608936 49.302679860941446 1419.7771585606627 49.15752353131221 Q 1419.6229299604315 49.01236720168298 1419.6229299604315 48.79463270723913 Q 1419.6229299604315 48.57689821279528 1419.7771585606627 48.43174188316605 Q 1419.9313871608936 48.28658555353681 1420.1491216553375 48.28658555353681 L 1421.4736731632042 48.28658555353681 L 1421.4736731632042 46.2725414799312 Q 1421.4736731632042 46.0366624442837 1421.6279017634354 45.882433844052635 Q 1421.7821303636663 45.72820524382158 1422.018009399314 45.72820524382158 Q 1422.2538884349615 45.72820524382158 1422.4081170351924 45.882433844052635 Q 1422.5623456354235 46.0366624442837 1422.5623456354235 46.2725414799312 L 1422.5623456354235 48.28658555353681 L 1424.3767997557889 48.28658555353681 Q 1424.5763897090292 48.28658555353681 1424.73061830926 48.4498864243697 Q 1424.8848469094912 48.613187295202586 1424.8848469094912 48.812777248442785 Q 1424.8848469094912 49.03051174288663 1424.739690579862 49.166595801914035 Q 1424.5945342502328 49.302679860941446 1424.3767997557889 49.302679860941446 L 1422.5623456354235 49.302679860941446 Z " fill-rule="evenodd"/><path d=" M 1396.410046287426 62.23977096178724 Q 1397.1267556649702 62.23977096178724 1397.603049871566 62.46657772683291 Q 1398.079344078162 62.69338449187859 1398.079344078162 63.04720304534984 Q 1398.079344078162 63.201431645580904 1397.979549101542 63.32390729870557 Q 1397.8797541249219 63.44638295183024 1397.7255255246907 63.44638295183024 Q 1397.607586006867 63.44638295183024 1397.5395439773533 63.41009386942292 Q 1397.4715019478397 63.373804787015615 1397.353562430016 63.29215435159917 Q 1397.299128806405 63.23772072798821 1397.1811892885812 63.165142563173596 Q 1397.0723220413593 63.110708939562635 1396.8727320881192 63.07441985715533 Q 1396.6731421348788 63.03813077474802 1396.509841264046 63.03813077474802 Q 1396.038083192751 63.03813077474802 1395.675192368678 63.255865269191865 Q 1395.312301544605 63.47359976363572 1395.1127115913646 63.859171264213366 Q 1394.9131216381245 64.24474276479103 1394.9131216381245 64.71650083608603 Q 1394.9131216381245 65.19733117798286 1395.1081754560637 65.57836654325959 Q 1395.303229274003 65.95940190853634 1395.6570478274743 66.17713640298018 Q 1396.0108663809456 66.39487089742403 1396.464479911037 66.39487089742403 Q 1396.936237982332 66.39487089742403 1397.2265506415904 66.2497145677948 Q 1397.2900565358032 66.21342548538749 1397.398923783025 66.13177504997105 Q 1397.4896464890433 66.05919688515644 1397.557688518557 66.02290780274913 Q 1397.6257305480708 65.98661872034182 1397.7255255246907 65.98661872034182 Q 1397.9069709367272 65.98661872034182 1398.0113020486483 66.10002210286464 Q 1398.1156331605694 66.21342548538749 1398.1156331605694 66.39487089742403 Q 1398.1156331605694 66.5853885800624 1397.875217989621 66.77137012739985 Q 1397.6348028186726 66.95735167473731 1397.2310867768913 67.07529119256107 Q 1396.82737073511 67.19323071038482 1396.3646849344168 67.19323071038482 Q 1395.675192368678 67.19323071038482 1395.149000673772 66.87116510401995 Q 1394.622808978866 66.54909949765509 1394.3370324549085 65.9820825850409 Q 1394.051255930951 65.41506567242672 1394.051255930951 64.71650083608603 Q 1394.051255930951 64.01793599974533 1394.3506408608112 63.45091908713115 Q 1394.6500257906714 62.883902174516955 1395.1852897561791 62.561836568152096 Q 1395.720553721687 62.23977096178724 1396.410046287426 62.23977096178724 Z  M 1401.6402102893792 66.66703901547885 Q 1401.6402102893792 66.84848442751539 1401.5131985009536 66.97549621594096 Q 1401.3861867125281 67.10250800436654 1401.2047413004916 67.10250800436654 Q 1401.0232958884549 67.10250800436654 1400.9008202353302 66.97549621594096 Q 1400.7783445822056 66.84848442751539 1400.7783445822056 66.66703901547885 L 1400.7783445822056 60.82449674790221 Q 1400.7783445822056 60.64305133586567 1400.9053563706311 60.51603954744009 Q 1401.032368159057 60.38902775901451 1401.2138135710934 60.38902775901451 Q 1401.39525898313 60.38902775901451 1401.5177346362545 60.51603954744009 Q 1401.6402102893792 60.64305133586567 1401.6402102893792 60.82449674790221 L 1401.6402102893792 66.66703901547885 Z  M 1409.201947836002 64.72557310668785 Q 1409.201947836002 65.43321021363036 1408.884418364938 65.99569099094364 Q 1408.5668888938742 66.55817176825693 1408.0180165224635 66.87570123932088 Q 1407.4691441510531 67.19323071038482 1406.8068683971196 67.19323071038482 Q 1406.1445926431863 67.19323071038482 1405.595720271776 66.87570123932088 Q 1405.0468479003653 66.55817176825693 1404.7293184293014 65.99569099094364 Q 1404.4117889582374 65.43321021363036 1404.4117889582374 64.72557310668785 Q 1404.4117889582374 64.01793599974533 1404.7293184293014 63.44638295183024 Q 1405.0468479003653 62.87482990391513 1405.595720271776 62.55730043285118 Q 1406.1445926431863 62.23977096178724 1406.8068683971196 62.23977096178724 Q 1407.4691441510531 62.23977096178724 1408.0180165224635 62.55730043285118 Q 1408.5668888938742 62.87482990391513 1408.884418364938 63.44638295183024 Q 1409.201947836002 64.01793599974533 1409.201947836002 64.72557310668785 Z  M 1408.3400821288285 64.72557310668785 Q 1408.3400821288285 64.23567049418918 1408.1359560402873 63.85009899361154 Q 1407.9318299517463 63.46452749303389 1407.582547533576 63.251329133890955 Q 1407.2332651154056 63.03813077474802 1406.8068683971196 63.03813077474802 Q 1406.3804716788338 63.03813077474802 1406.0311892606635 63.251329133890955 Q 1405.6819068424932 63.46452749303389 1405.477780753952 63.85009899361154 Q 1405.273654665411 64.23567049418918 1405.273654665411 64.72557310668785 Q 1405.273654665411 65.2064034485847 1405.477780753952 65.58743881386143 Q 1405.6819068424932 65.96847417913816 1406.0311892606635 66.1816725382811 Q 1406.3804716788338 66.39487089742403 1406.8068683971196 66.39487089742403 Q 1407.2332651154056 66.39487089742403 1407.582547533576 66.1816725382811 Q 1407.9318299517463 65.96847417913816 1408.1359560402873 65.58743881386143 Q 1408.3400821288285 65.2064034485847 1408.3400821288285 64.72557310668785 Z  M 1415.4391338747582 62.34863820900916 Q 1415.6296515573965 62.34863820900916 1415.7521272105212 62.475649997434736 Q 1415.8746028636458 62.60266178586031 1415.8746028636458 62.78410719789686 L 1415.8746028636458 65.19733117798286 Q 1415.8746028636458 66.14084732057287 1415.3529473040408 66.66250288017793 Q 1414.8312917444357 67.18415843978299 1413.878703331244 67.18415843978299 Q 1412.9351871886538 67.18415843978299 1412.4180677643499 66.66250288017793 Q 1411.9009483400457 66.14084732057287 1411.9009483400457 65.19733117798286 L 1411.9009483400457 62.78410719789686 Q 1411.9009483400457 62.60266178586031 1412.0234239931704 62.475649997434736 Q 1412.145899646295 62.34863820900916 1412.3273450583315 62.34863820900916 Q 1412.5178627409698 62.34863820900916 1412.6403383940944 62.475649997434736 Q 1412.7628140472193 62.60266178586031 1412.7628140472193 62.78410719789686 L 1412.7628140472193 65.19733117798286 Q 1412.7628140472193 66.38579862682221 1413.878703331244 66.38579862682221 Q 1414.4321118379553 66.38579862682221 1414.7224244972138 66.08641369696191 Q 1415.0127371564722 65.78702876710162 1415.0127371564722 65.19733117798286 L 1415.0127371564722 62.78410719789686 Q 1415.0127371564722 62.60266178586031 1415.135212809597 62.475649997434736 Q 1415.2576884627217 62.34863820900916 1415.4391338747582 62.34863820900916 Z  M 1422.7196310327245 60.38902775901451 Q 1422.9101487153628 60.38902775901451 1423.0326243684874 60.51150341213918 Q 1423.155100021612 60.63397906526384 1423.155100021612 60.82449674790221 L 1423.155100021612 66.66703901547885 Q 1423.155100021612 66.84848442751539 1423.0326243684874 66.97549621594096 Q 1422.9101487153628 67.10250800436654 1422.7196310327245 67.10250800436654 Q 1422.529113350086 67.10250800436654 1422.4111738322622 66.98003235124187 Q 1422.2932343144385 66.85755669811721 1422.2932343144385 66.66703901547885 L 1422.2932343144385 66.4130154386277 Q 1422.0664275493928 66.73961718029346 1421.6536392370097 66.96642394533913 Q 1421.2408509246266 67.19323071038482 1420.7690928533316 67.19323071038482 Q 1420.1521784524073 67.19323071038482 1419.653203569307 66.87570123932088 Q 1419.1542286862064 66.55817176825693 1418.863916026948 65.99115485564272 Q 1418.5736033676894 65.42413794302854 1418.5736033676894 64.71650083608603 Q 1418.5736033676894 64.00886372914351 1418.859379891647 63.44184681652932 Q 1419.1451564156046 62.87482990391513 1419.6441312987051 62.55730043285118 Q 1420.1431061818055 62.23977096178724 1420.7418760415262 62.23977096178724 Q 1421.222706383423 62.23977096178724 1421.6309585605052 62.43936091502743 Q 1422.0392107375874 62.63895086826762 1422.2932343144385 62.95648033933157 L 1422.2932343144385 60.82449674790221 Q 1422.2932343144385 60.63397906526384 1422.4111738322622 60.51150341213918 Q 1422.529113350086 60.38902775901451 1422.7196310327245 60.38902775901451 Z  M 1420.8688878299517 66.39487089742403 Q 1421.2952845482375 66.39487089742403 1421.6264224252043 66.17713640298018 Q 1421.957560302171 65.95940190853634 1422.1435418495084 65.57836654325959 Q 1422.3295233968458 65.19733117798286 1422.3295233968458 64.71650083608603 Q 1422.3295233968458 64.24474276479103 1422.1435418495084 63.859171264213366 Q 1421.957560302171 63.47359976363572 1421.6264224252043 63.255865269191865 Q 1421.2952845482375 63.03813077474802 1420.8688878299517 63.03813077474802 Q 1420.4424911116657 63.03813077474802 1420.1113532346992 63.255865269191865 Q 1419.7802153577325 63.47359976363572 1419.594233810395 63.859171264213366 Q 1419.4082522630574 64.24474276479103 1419.4082522630574 64.71650083608603 Q 1419.4082522630574 65.19733117798286 1419.594233810395 65.57836654325959 Q 1419.7802153577325 65.95940190853634 1420.1113532346992 66.17713640298018 Q 1420.4424911116657 66.39487089742403 1420.8688878299517 66.39487089742403 Z " fill-rule="evenodd"/><path d=" M 1338.1926268175182 54.58304300276193 C 1338.1896287098043 54.59311009267062 1338.1868814594511 54.60327951589094 1338.1841473153113 54.61345428558479 C 1338.0316534158583 54.57934620587377 1337.8728929824022 54.56233659321594 1337.710191089532 54.56233659321567 C 1336.4466802843167 54.56233659321594 1335.4208698001507 55.58814707738201 1335.4208698001503 56.85165788259737 C 1335.4208698001507 58.115168687812805 1336.4466802843167 59.14097917197888 1337.710191089532 59.14097917197906 C 1337.760478678107 59.14097917197888 1337.8103897419833 59.139354256282225 1337.859748516233 59.135765637993465 C 1338.5601404101105 65.06797682738204 1343.6117723237298 69.67529954717651 1349.7310108826086 69.67529954717597 C 1356.3293450876226 69.67529954717654 1361.686355393823 64.3182892409761 1361.686355393823 57.719955035962734 C 1361.686355393823 51.47945911305619 1356.8946283380665 46.349299921071484 1350.7924901392046 45.81266190472105 C 1350.7313366438525 44.602968734475375 1349.7299102812467 43.6390897561842 1348.5051343368916 43.63908975618431 C 1347.241623531676 43.6390897561842 1346.21581304751 44.66490024035027 1346.21581304751 45.928411045566016 C 1346.21581304751 46.00226059099759 1346.2193173764545 46.07529811498089 1346.2268221229613 46.147190987245075 C 1346.2308810752927 46.17377487216397 1346.2329075739635 46.20095481228116 1346.234958686798 46.2281277587114 C 1346.237353814169 46.24705549532474 1346.239982102556 46.265906151173375 1346.2428234143263 46.284686383563205 C 1346.240528719316 46.28538536973047 1346.238234316434 46.286085028377094 1346.2359553173428 46.28682014654216 C 1346.2363390783564 46.295675689260854 1346.236409178157 46.304603913408265 1346.236409178157 46.31354838104871 C 1346.236409178157 47.2401229715396 1345.4841481564351 47.99238399326136 1344.557573565944 47.992383993261505 C 1344.1254625531205 47.99238399326136 1343.7312621781498 47.82877828335376 1343.4333443094213 47.560443153684226 C 1343.4276705727457 47.563866328489034 1343.4220514515937 47.56736902377268 1343.416435463707 47.570876281106614 C 1342.8430870974785 47.05624243400535 1342.0724654431476 46.74130438120522 1341.2256997404752 46.74130438120557 C 1339.4541988986894 46.74130438120522 1338.0159649487214 48.11972368327046 1338.0159649487211 49.817549655182994 C 1338.0159649487214 50.755623978060804 1338.4550186955857 51.596192123190356 1339.1481035316212 52.15911808615852 C 1339.1474124848974 52.16042582210438 1339.146721676224 52.161733702695436 1339.14606551384 52.16306263519028 C 1339.5179849688932 52.39489321053431 1339.7669921862966 52.815687768371426 1339.7669921862969 53.29594848253053 C 1339.7669921862966 54.02563288763762 1339.1921773888603 54.61804405642389 1338.484166777964 54.61804405642392 C 1338.3838230544618 54.61804405642389 1338.2861547478635 54.60614468200776 1338.1926268175182 54.58304300276193 Z  M 1354.5535103844022 51.225023093115134 L 1354.5535103844022 59.64408910415519 Q 1354.553510384402 62.20246913700682 1353.1654540897769 63.48165569263559 Q 1351.7773977951526 64.76084916985835 1349.6000583879884 64.76084916985849 Q 1347.4227051376383 64.76084916985835 1345.6626824259733 63.40000857958443 L 1346.6243408948585 61.85771842431836 Q 1348.0396267370195 62.92824663219711 1349.482114440345 62.92824663219697 Q 1350.924602143671 62.92824663219711 1351.7683305080977 62.1843207197113 Q 1352.6120450293383 61.44039480722491 1352.6120450293383 59.80739025185223 L 1352.6120450293383 58.57356089627658 Q 1352.158431499247 59.4263496261644 1351.3147169780063 59.934401486550634 Q 1350.4709886135797 60.442446425342574 1349.4186019014028 60.44244642534314 Q 1347.4952849636354 60.442446425342574 1346.2614556080594 59.09975425236406 Q 1345.0276262524835 57.75705515779294 1345.0276262524837 55.761158394028676 Q 1345.0276262524835 53.765254708670376 1346.2614556080594 52.42256253569216 Q 1347.4952849636354 51.07986344112076 1349.4095346143476 51.079863441120615 Q 1351.3237842650612 51.07986344112076 1352.521316786046 52.65843658779287 L 1352.521316786046 51.225023093115134 L 1354.5535103844022 51.225023093115134 Z  M 1347.0235230162475 55.679504359383934 Q 1347.0235230162482 55.679504359383365 1347.0235230162475 56.273736976348125 Q 1347.0235230162482 56.867969593312885 1347.7583747200856 57.729839453442516 Q 1348.4932402671109 58.591702391978664 1349.7361369097418 58.59170239197909 Q 1350.9790335523721 58.591702391978664 1351.7501820908017 57.757055157792514 Q 1352.5213167860456 56.92240792360722 1352.521316786046 55.679504359383934 Q 1352.5213167860456 54.436600795159514 1351.7411148037468 53.57473785662307 Q 1350.9608989782628 52.712874918086904 1349.7270696226867 52.71287491808648 Q 1348.4932402671109 52.712874918086904 1347.7583747200856 53.6019535609742 Q 1347.0235230162482 54.49103912545383 1347.0235230162475 55.679504359383934 Z  M 1342.4713242180167 45.06571685168718 C 1342.471324218017 44.2770318137571 1343.1116364158026 43.63671961597132 1343.9003214537322 43.636719615971636 C 1344.6890064916624 43.63671961597132 1345.3293186894484 44.2770318137571 1345.3293186894477 45.06571685168718 C 1345.3293186894484 45.85440188961717 1344.6890064916624 46.49471408740296 1343.9003214537322 46.49471408740272 C 1343.1116364158026 46.49471408740296 1342.471324218017 45.85440188961717 1342.4713242180167 45.06571685168718 Z  M 1335.4051635888627 52.68997679349112 C 1335.4051635888632 51.97309230646183 1335.987182847974 51.39107304735092 1336.7040673350023 51.39107304735037 C 1337.4209518220314 51.39107304735092 1338.0029710811423 51.97309230646183 1338.0029710811418 52.68997679349112 C 1338.0029710811423 53.40686128051933 1337.4209518220314 53.98888053963024 1336.7040673350023 53.988880539630706 C 1335.987182847974 53.98888053963024 1335.4051635888632 53.40686128051933 1335.4051635888627 52.68997679349112 Z  M 1331.8037059207963 52.47470410058761 C 1331.8037059207968 52.135891691354566 1332.078778615167 51.86081899698427 1332.4175910244003 51.86081899698478 C 1332.7564034336326 51.86081899698427 1333.0314761280029 52.135891691354566 1333.031476128003 52.47470410058761 C 1333.0314761280029 52.8135165098202 1332.7564034336326 53.088589204190505 1332.4175910244003 53.08858920419042 C 1332.078778615167 53.088589204190505 1331.8037059207968 52.8135165098202 1331.8037059207963 52.47470410058761 Z  M 1332.812065859206 43.37241325556905 C 1332.8120658592063 43.032401374898676 1333.0881123722188 42.75635486188627 1333.4281242528893 42.756354861886756 C 1333.7681361335603 42.75635486188627 1334.0441826465728 43.032401374898676 1334.0441826465728 43.37241325556905 C 1334.0441826465728 43.712425136240434 1333.7681361335603 43.98847164925284 1333.4281242528893 43.988471649252496 C 1333.0881123722188 43.98847164925284 1332.8120658592063 43.712425136240434 1332.812065859206 43.37241325556905 Z  M 1336.5659620237782 46.60894350090097 C 1336.5659620237775 46.16090837129726 1336.9297097110352 45.79716068403983 1337.377744840639 45.797160684040215 C 1337.825779970242 45.79716068403983 1338.1895276574994 46.16090837129726 1338.1895276574996 46.60894350090097 C 1338.1895276574994 47.05697863050401 1337.825779970242 47.420726317761414 1337.377744840639 47.42072631776174 C 1336.9297097110352 47.420726317761414 1336.5659620237775 47.05697863050401 1336.5659620237782 46.60894350090097 Z  M 1337.4871905970972 42.75632926735796 C 1337.4871905970977 42.3343851430871 1337.8297556979442 41.99182004224054 1338.2516998222147 41.99182004224031 C 1338.6736439464858 41.99182004224054 1339.0162090473323 42.3343851430871 1339.0162090473325 42.75632926735796 C 1339.0162090473323 43.1782733916288 1338.6736439464858 43.520838492475356 1338.2516998222147 43.5208384924756 C 1337.8297556979442 43.520838492475356 1337.4871905970977 43.1782733916288 1337.4871905970972 42.75632926735796 Z  M 1332.2640968563578 48.22515150272802 C 1332.2640968563578 47.777116373124834 1332.627844543615 47.41336868586743 1333.0758796732184 47.41336868586725 C 1333.523914802822 47.41336868586743 1333.8876624900795 47.777116373124834 1333.8876624900793 48.22515150272802 C 1333.8876624900795 48.6731866323316 1333.523914802822 49.036934319589015 1333.0758796732184 49.036934319588774 C 1332.627844543615 49.036934319589015 1332.2640968563578 48.6731866323316 1332.2640968563578 48.22515150272802 Z  M 1341.4989438650941 41.59274120924628 C 1341.4989438650946 41.26797531245514 1341.761527872126 41.00430660423897 1342.0849577212862 41.00430660423931 C 1342.4083875704464 41.00430660423897 1342.6709715774778 41.26797531245514 1342.670971577478 41.59274120924628 C 1342.6709715774778 41.91750710603815 1342.4083875704464 42.181175814254324 1342.0849577212862 42.18117581425437 C 1341.761527872126 42.181175814254324 1341.4989438650946 41.91750710603815 1341.4989438650941 41.59274120924628 Z " fill-rule="evenodd"/></svg>